# xmcd
#
# Track frame offsets:
# 150
# 29107
# 48828
# 85395
# 107237
# 117620
# 133890
# 157333
# 172013
# 189745
# 217153
# 250188
# 274690
# 293193
# 317613
#
# Disc length: 4420 seconds
#
#
# Revision: 0
# Processed by: cddbd v1.5.2PL0 Copyright (c) Steve Scherf et al.
# Submitted via: Nero 7, 11, 10, 0 
#
DISCID=f411420f
DTITLE=Bob Gaddy - Larry Dale and The Houserockers - Live
DYEAR=1993
DGENRE=Blues
TTITLE0=Things Ain't What They Used To Be
TTITLE1=Don't Have To Ride No More
TTITLE2=Things That I Used To Do
TTITLE3=Let The Good Times Roll
TTITLE4=Jookin'
TTITLE5=Since I Met You Baby
TTITLE6=Bright Lights, Big City
TTITLE7=Drinkin' Wine Spo-Dee-Oh-Dee
TTITLE8=Feel So Good
TTITLE9=Ten Long Years
TTITLE10=Operator 129
TTITLE11=Baby, You Don't Have To Go
TTITLE12=Kansas City
TTITLE13=Please, Please, Please
TTITLE14=Goodnight Irene
EXTD=
EXTT0=Things Ain't What They Used To Be
EXTT1=Don't Have To Ride No More
EXTT2=Things That I Used To Do
EXTT3=Let The Good Times Roll
EXTT4=Jookin'
EXTT5=Since I Met You Baby
EXTT6=Bright Lights, Big City
EXTT7=Drinkin' Wine Spo-Dee-Oh-Dee
EXTT8=Feel So Good
EXTT9=Ten Long Years
EXTT10=Operator 129
EXTT11=Baby, You Don't Have To Go
EXTT12=Kansas City
EXTT13=Please, Please, Please
EXTT14=Goodnight Irene
PLAYORDER=
